<mxfile host="app.diagrams.net" agent="Mozilla/5.0 (Macintosh; Intel Mac OS X 10_15_7) AppleWebKit/605.1.15 (KHTML, like Gecko) Version/17.6 Safari/605.1.15" version="25.0.1">
  <diagram name="PÃ¡gina-1" id="SThCyzhboI1cXbIzk-hO">
    <mxGraphModel dx="1425" dy="1999" grid="1" gridSize="10" guides="1" tooltips="1" connect="1" arrows="1" fold="1" page="1" pageScale="1" pageWidth="827" pageHeight="1169" math="0" shadow="0">
      <root>
        <mxCell id="0" />
        <mxCell id="1" parent="0" />
        <mxCell id="kqyUvJmErNS5ZmOY0C8j-5" value="Student" style="swimlane;fontStyle=1;align=center;verticalAlign=top;childLayout=stackLayout;horizontal=1;startSize=26;horizontalStack=0;resizeParent=1;resizeParentMax=0;resizeLast=0;collapsible=1;marginBottom=0;whiteSpace=wrap;html=1;" vertex="1" parent="1">
          <mxGeometry x="490" y="230" width="160" height="114" as="geometry" />
        </mxCell>
        <mxCell id="kqyUvJmErNS5ZmOY0C8j-6" value="- id : Integer&lt;div&gt;&lt;br&gt;&lt;/div&gt;&lt;div&gt;- name : String&lt;/div&gt;" style="text;strokeColor=none;fillColor=none;align=left;verticalAlign=top;spacingLeft=4;spacingRight=4;overflow=hidden;rotatable=0;points=[[0,0.5],[1,0.5]];portConstraint=eastwest;whiteSpace=wrap;html=1;" vertex="1" parent="kqyUvJmErNS5ZmOY0C8j-5">
          <mxGeometry y="26" width="160" height="54" as="geometry" />
        </mxCell>
        <mxCell id="kqyUvJmErNS5ZmOY0C8j-7" value="" style="line;strokeWidth=1;fillColor=none;align=left;verticalAlign=middle;spacingTop=-1;spacingLeft=3;spacingRight=3;rotatable=0;labelPosition=right;points=[];portConstraint=eastwest;strokeColor=inherit;" vertex="1" parent="kqyUvJmErNS5ZmOY0C8j-5">
          <mxGeometry y="80" width="160" height="8" as="geometry" />
        </mxCell>
        <mxCell id="kqyUvJmErNS5ZmOY0C8j-8" value="+ method(type): type" style="text;strokeColor=none;fillColor=none;align=left;verticalAlign=top;spacingLeft=4;spacingRight=4;overflow=hidden;rotatable=0;points=[[0,0.5],[1,0.5]];portConstraint=eastwest;whiteSpace=wrap;html=1;" vertex="1" parent="kqyUvJmErNS5ZmOY0C8j-5">
          <mxGeometry y="88" width="160" height="26" as="geometry" />
        </mxCell>
        <mxCell id="kqyUvJmErNS5ZmOY0C8j-23" style="edgeStyle=orthogonalEdgeStyle;rounded=0;orthogonalLoop=1;jettySize=auto;html=1;entryX=0;entryY=0.5;entryDx=0;entryDy=0;" edge="1" parent="1" target="kqyUvJmErNS5ZmOY0C8j-18">
          <mxGeometry relative="1" as="geometry">
            <mxPoint x="240" as="sourcePoint" />
            <mxPoint x="-70" y="320" as="targetPoint" />
          </mxGeometry>
        </mxCell>
        <mxCell id="kqyUvJmErNS5ZmOY0C8j-13" value="University" style="swimlane;fontStyle=1;align=center;verticalAlign=top;childLayout=stackLayout;horizontal=1;startSize=26;horizontalStack=0;resizeParent=1;resizeParentMax=0;resizeLast=0;collapsible=1;marginBottom=0;whiteSpace=wrap;html=1;" vertex="1" parent="1">
          <mxGeometry x="240" y="-110" width="260" height="220" as="geometry" />
        </mxCell>
        <mxCell id="kqyUvJmErNS5ZmOY0C8j-14" value="&lt;div&gt;-name : String&lt;/div&gt;&lt;div&gt;&lt;br&gt;&lt;/div&gt;&lt;div&gt;-courseSet : &amp;nbsp;Set&amp;lt;Course&amp;gt;&lt;/div&gt;&lt;div&gt;&lt;br&gt;&lt;/div&gt;&lt;div&gt;-studentSet : Set&amp;lt;Student&amp;gt;&lt;/div&gt;" style="text;strokeColor=none;fillColor=none;align=left;verticalAlign=top;spacingLeft=4;spacingRight=4;overflow=hidden;rotatable=0;points=[[0,0.5],[1,0.5]];portConstraint=eastwest;whiteSpace=wrap;html=1;" vertex="1" parent="kqyUvJmErNS5ZmOY0C8j-13">
          <mxGeometry y="26" width="260" height="74" as="geometry" />
        </mxCell>
        <mxCell id="kqyUvJmErNS5ZmOY0C8j-15" value="" style="line;strokeWidth=1;fillColor=none;align=left;verticalAlign=middle;spacingTop=-1;spacingLeft=3;spacingRight=3;rotatable=0;labelPosition=right;points=[];portConstraint=eastwest;strokeColor=inherit;" vertex="1" parent="kqyUvJmErNS5ZmOY0C8j-13">
          <mxGeometry y="100" width="260" height="20" as="geometry" />
        </mxCell>
        <mxCell id="kqyUvJmErNS5ZmOY0C8j-16" value="+generateStudent(Integer, String) : void&lt;div&gt;&lt;br&gt;&lt;/div&gt;&lt;div&gt;+generateCourse(Integer, String): void&lt;/div&gt;&lt;div&gt;&lt;br&gt;&lt;/div&gt;&lt;div&gt;+suscribeStudent(Integer, Integer) : void&lt;/div&gt;" style="text;strokeColor=none;fillColor=none;align=left;verticalAlign=top;spacingLeft=4;spacingRight=4;overflow=hidden;rotatable=0;points=[[0,0.5],[1,0.5]];portConstraint=eastwest;whiteSpace=wrap;html=1;" vertex="1" parent="kqyUvJmErNS5ZmOY0C8j-13">
          <mxGeometry y="120" width="260" height="100" as="geometry" />
        </mxCell>
        <mxCell id="kqyUvJmErNS5ZmOY0C8j-17" value="Course" style="swimlane;fontStyle=1;align=center;verticalAlign=top;childLayout=stackLayout;horizontal=1;startSize=26;horizontalStack=0;resizeParent=1;resizeParentMax=0;resizeLast=0;collapsible=1;marginBottom=0;whiteSpace=wrap;html=1;" vertex="1" parent="1">
          <mxGeometry x="60" y="240" width="160" height="144" as="geometry" />
        </mxCell>
        <mxCell id="kqyUvJmErNS5ZmOY0C8j-18" value="-id : Integer&lt;div&gt;&lt;br&gt;&lt;/div&gt;&lt;div&gt;- subject : String&lt;/div&gt;&lt;div&gt;&lt;br&gt;&lt;/div&gt;&lt;div&gt;- studentSet : Set&amp;lt;Student&amp;gt;&lt;/div&gt;" style="text;strokeColor=none;fillColor=none;align=left;verticalAlign=top;spacingLeft=4;spacingRight=4;overflow=hidden;rotatable=0;points=[[0,0.5],[1,0.5]];portConstraint=eastwest;whiteSpace=wrap;html=1;" vertex="1" parent="kqyUvJmErNS5ZmOY0C8j-17">
          <mxGeometry y="26" width="160" height="84" as="geometry" />
        </mxCell>
        <mxCell id="kqyUvJmErNS5ZmOY0C8j-19" value="" style="line;strokeWidth=1;fillColor=none;align=left;verticalAlign=middle;spacingTop=-1;spacingLeft=3;spacingRight=3;rotatable=0;labelPosition=right;points=[];portConstraint=eastwest;strokeColor=inherit;" vertex="1" parent="kqyUvJmErNS5ZmOY0C8j-17">
          <mxGeometry y="110" width="160" height="8" as="geometry" />
        </mxCell>
        <mxCell id="kqyUvJmErNS5ZmOY0C8j-20" value="+addStudent(Student): void" style="text;strokeColor=none;fillColor=none;align=left;verticalAlign=top;spacingLeft=4;spacingRight=4;overflow=hidden;rotatable=0;points=[[0,0.5],[1,0.5]];portConstraint=eastwest;whiteSpace=wrap;html=1;" vertex="1" parent="kqyUvJmErNS5ZmOY0C8j-17">
          <mxGeometry y="118" width="160" height="26" as="geometry" />
        </mxCell>
        <mxCell id="kqyUvJmErNS5ZmOY0C8j-21" style="edgeStyle=orthogonalEdgeStyle;rounded=0;orthogonalLoop=1;jettySize=auto;html=1;entryX=0;entryY=0.5;entryDx=0;entryDy=0;" edge="1" parent="1" source="kqyUvJmErNS5ZmOY0C8j-18" target="kqyUvJmErNS5ZmOY0C8j-6">
          <mxGeometry relative="1" as="geometry">
            <mxPoint x="490" y="288" as="targetPoint" />
          </mxGeometry>
        </mxCell>
        <mxCell id="kqyUvJmErNS5ZmOY0C8j-22" value="n" style="text;align=center;fontStyle=1;verticalAlign=middle;spacingLeft=3;spacingRight=3;strokeColor=none;rotatable=0;points=[[0,0.5],[1,0.5]];portConstraint=eastwest;html=1;" vertex="1" parent="1">
          <mxGeometry x="440" y="250" width="70" height="30" as="geometry" />
        </mxCell>
        <mxCell id="kqyUvJmErNS5ZmOY0C8j-25" style="edgeStyle=orthogonalEdgeStyle;rounded=0;orthogonalLoop=1;jettySize=auto;html=1;entryX=1;entryY=0.5;entryDx=0;entryDy=0;" edge="1" parent="1" source="kqyUvJmErNS5ZmOY0C8j-14" target="kqyUvJmErNS5ZmOY0C8j-6">
          <mxGeometry relative="1" as="geometry">
            <Array as="points">
              <mxPoint x="770" y="-47" />
              <mxPoint x="770" y="283" />
            </Array>
          </mxGeometry>
        </mxCell>
      </root>
    </mxGraphModel>
  </diagram>
</mxfile>
